<?xml version="1.0" standalone="no"?>
<!DOCTYPE svg PUBLIC "-//W3C//DTD SVG 20010904//EN"
 "http://www.w3.org/TR/2001/REC-SVG-20010904/DTD/svg10.dtd">
<svg version="1.0" xmlns="http://www.w3.org/2000/svg"
 width="260.000000pt" height="260.000000pt" viewBox="0 0 260.000000 260.000000"
 preserveAspectRatio="xMidYMid meet">
<metadata>
Created by potrace 1.11, written by Peter Selinger 2001-2013
</metadata>
<g transform="translate(0.000000,260.000000) scale(0.100000,-0.100000)"
fill="#000000" stroke="none">
<path d="M0 1300 l0 -1300 1300 0 1300 0 0 1300 0 1300 -1300 0 -1300 0 0
-1300z m1138 538 c19 -19 16 -711 -3 -801 -39 -184 -149 -273 -350 -284 -103
-6 -172 6 -250 43 -50 23 -155 107 -155 123 0 13 143 176 157 179 8 2 31 -13
50 -33 90 -93 222 -98 258 -11 12 28 15 90 15 301 l0 265 -173 0 c-121 0 -177
4 -185 12 -16 16 -16 190 0 206 17 17 619 17 636 0z m1057 -103 l0 -110 -162
-3 -163 -2 0 -419 c0 -345 -2 -421 -14 -430 -9 -8 -56 -11 -142 -9 l-129 3 -3
428 -2 427 -158 0 c-110 0 -162 4 -170 12 -16 16 -16 190 0 206 9 9 124 12
478 10 l465 -3 0 -110z"/>
</g>
</svg>
